<svg xmlns="http://www.w3.org/2000/svg" xmlns:xlink="http://www.w3.org/1999/xlink" width="28" height="33" viewBox="0 0 28 33">
    <defs>
        <path id="ujina" d="M1330.956 1147.186c.192.139.363.215.529.244l.671 2.889 1.844-2.615-.38-.229-.073-.04c.356-.851.624-1.745.36-2.108-.316-.442-1.61-1.77-1.703-1.871-.466-.497-1.094-.29-1.432.179-.152.218-.343.416-.45.621 0 .002-1.011 1.776.634 2.93zm-14.701 18.132c-.554-1.111.306-2.912.332-2.906.089.021.244.045.244.045l.149.412s.051.004.087.012c2.568.477 5.456.354 6.012-.045 1.367-.982 2.729-3.518 3.15-4.766 0 0 2.613-1.52 4.674-1.289 1.504.17 2.112 1.475 2.112 3.398.095 0 .649.055.649.055s-.05.213-.057.311c-.006.096-.24.342-.221.432.172.748.52 1.57 1.31 1.932 2.706-.646 5.307-3.178 5.307-3.178l-1.022-.877c-.796.648-2.03 1.2-2.844 1.287 0 0 .79-5.973-.057-6.766-1.054-.99-2.982-1.445-3.887-1.311l.966 2.709-11.325 2.744s-.642-1.652-.834-2.217c.024 1.365-.914 3.547-1.291 3.984-.945 1.098-2.636 1.102-3.76.855l-1.003-.246s-.859 1.178-1.163 1.855c-1.374 3.064 1.302 4.25 1.302 4.25h22.429c-.472-.17-.996-.314-1.558-.439-4.497-1.502-14.625-1.432-19.701-.241zm2.755-11.351c.053.004 2.337-.119 2.944-.666.006-.002 1.014-1.742.092-2.408-.286-.236-.71-.15-2.088-.092-1.378.059-1.856-.158-1.856-.158l1.097-.821-.922-3.675 9.62-2.206.023-.013c-1.17-1.056-2.932-1.868-5.808-1.565l-.588-.555c.336-.18.51-.201.808-.489-.922-1.854-1.343-3.868-1.363-4.968.671-.187 3.331-.43 3.884-3.349 0 0-1.897 1.296-3.37.555-2.491-1.253-4.228 1.04-4.228 1.04s-1.677.08-1.637 1.08c.119 2.995 1.098 5.186 2.985 7.734-2.288 1.005-3.426 1.987-4.493 3.537-1.415 2.061-2.112 4.804-2.112 4.804s2.003 2.381 6.65 2.873c.096-.365.278-.457.362-.658z" />
    </defs>
    <g>
        <g transform="translate(-1312 -1133)">
            <use fill="#6b7076" xlink:href="#ujina" />
        </g>
    </g>
</svg>