<svg xmlns="http://www.w3.org/2000/svg" xmlns:xlink="http://www.w3.org/1999/xlink" width="41" height="56" viewBox="0 0 41 56">
    <defs>
        <path id="5pt8a" d="M129.825 29.007a1.787 1.787 0 1 1-.256 3.564 1.787 1.787 0 0 1 .256-3.564zm-4.71-1.53c1.229.087 2.135 1.4 2.025 2.93-.11 1.532-1.194 2.701-2.422 2.613-1.228-.088-2.135-1.4-2.025-2.931.11-1.531 1.194-2.701 2.423-2.613zm8.242 3.774a1.588 1.588 0 1 1-.227 3.168 1.588 1.588 0 0 1 .227-3.168zm2.8 2.59a1.39 1.39 0 1 1-.2 2.772 1.39 1.39 0 0 1 .2-2.772zm1.554 3.296a1.19 1.19 0 1 1-.17 2.375 1.19 1.19 0 0 1 .17-2.375zm-10.764-2.763c3.021.217 5.585 1.54 8.039 4.374.877 1.012 2.456 2.835 2.293 5.101-.054.756-.108 1.512-.567 2.618-.46 1.107-1.323 2.563-3.079 5.855-1.755 3.292-1.852 6.447-2.096 9.847-.244 3.4-2.128 5.42-5.15 5.203-3.023-.217-4.601-2.448-4.411-5.093.19-2.645 1.804-4.967 4.639-7.422 2.226-1.93 2.62-4.75 2.729-6.26.19-2.645-2.698-4.75-4.452-6.775-1.402-1.62-1.671-3.158-1.563-4.67.136-1.889 1.35-2.94 3.616-2.778h.002zM109.9 15.493a1.787 1.787 0 1 1-3.574.012 1.787 1.787 0 0 1 3.574-.012zm5.248-.216c.006 1.535-.988 2.782-2.22 2.786-1.231.005-2.233-1.236-2.239-2.771-.005-1.535.989-2.782 2.22-2.787 1.231-.004 2.234 1.237 2.24 2.772zm-9.124 2.016a1.588 1.588 0 1 1-3.177.01 1.588 1.588 0 0 1 3.177-.01zm-3.169 2.195a1.39 1.39 0 1 1-2.78.009 1.39 1.39 0 0 1 2.78-.01zm-1.975 2.984a1.191 1.191 0 1 1-2.382.008 1.191 1.191 0 0 1 2.382-.008zm9.734-3.21s-.757.003 0 0zm0 0c2.273-.008 3.412 1.125 3.418 3.019.005 1.515-.367 3.032-1.877 4.552-1.888 1.9-4.912 3.804-4.903 6.456.005 1.515.206 4.355 2.296 6.431 2.66 2.642 4.114 5.07 4.123 7.72.009 2.653-1.717 4.771-4.748 4.782-3.03.01-4.772-2.133-4.783-5.542-.012-3.409.106-6.563-1.421-9.967-1.528-3.403-2.29-4.916-2.673-6.05-.382-1.135-.385-1.893-.388-2.65-.007-2.273 1.692-3.985 2.636-4.935 2.642-2.66 5.29-3.805 8.32-3.816z" />
    </defs>
    <g>
        <g opacity=".32" transform="translate(-98 -12)">
            <use fill="#ebf4ff" xlink:href="#5pt8a" />
        </g>
    </g>
</svg>