<svg xmlns="http://www.w3.org/2000/svg" xmlns:xlink="http://www.w3.org/1999/xlink" width="42" height="42" viewBox="0 0 42 42">
    <defs>
        <path id="cbq8a" d="M241.016 258.969c11.606 0 21.015 9.409 21.015 21.015 0 11.607-9.409 21.016-21.015 21.016-11.607 0-21.016-9.409-21.016-21.016 0-11.606 9.409-21.015 21.016-21.015zm-8.053 20.06a7.03 7.03 0 0 0 11.135 5.708l4.29 4.233h1.587v-1.618l-4.263-4.234a7.03 7.03 0 1 0-12.75-4.088zm7.033-5.053a5.026 5.026 0 1 1 0 10.052 5.026 5.026 0 0 1 0-10.052z" />
    </defs>
    <g>
        <g transform="translate(-220 -259)">
            <use fill="#fff" xlink:href="#cbq8a" />
        </g>
    </g>
</svg>