<svg xmlns="http://www.w3.org/2000/svg" xmlns:xlink="http://www.w3.org/1999/xlink" width="0" height="0" style="position:absolute">


    <symbol id="logo-h" viewBox="0 0 41 56">
        <defs>
            <path id="5pt8a" d="M129.825 29.007a1.787 1.787 0 1 1-.256 3.564 1.787 1.787 0 0 1 .256-3.564zm-4.71-1.53c1.229.087 2.135 1.4 2.025 2.93-.11 1.532-1.194 2.701-2.422 2.613-1.228-.088-2.135-1.4-2.025-2.931.11-1.531 1.194-2.701 2.423-2.613zm8.242 3.774a1.588 1.588 0 1 1-.227 3.168 1.588 1.588 0 0 1 .227-3.168zm2.8 2.59a1.39 1.39 0 1 1-.2 2.772 1.39 1.39 0 0 1 .2-2.772zm1.554 3.296a1.19 1.19 0 1 1-.17 2.375 1.19 1.19 0 0 1 .17-2.375zm-10.764-2.763c3.021.217 5.585 1.54 8.039 4.374.877 1.012 2.456 2.835 2.293 5.101-.054.756-.108 1.512-.567 2.618-.46 1.107-1.323 2.563-3.079 5.855-1.755 3.292-1.852 6.447-2.096 9.847-.244 3.4-2.128 5.42-5.15 5.203-3.023-.217-4.601-2.448-4.411-5.093.19-2.645 1.804-4.967 4.639-7.422 2.226-1.93 2.62-4.75 2.729-6.26.19-2.645-2.698-4.75-4.452-6.775-1.402-1.62-1.671-3.158-1.563-4.67.136-1.889 1.35-2.94 3.616-2.778h.002zM109.9 15.493a1.787 1.787 0 1 1-3.574.012 1.787 1.787 0 0 1 3.574-.012zm5.248-.216c.006 1.535-.988 2.782-2.22 2.786-1.231.005-2.233-1.236-2.239-2.771-.005-1.535.989-2.782 2.22-2.787 1.231-.004 2.234 1.237 2.24 2.772zm-9.124 2.016a1.588 1.588 0 1 1-3.177.01 1.588 1.588 0 0 1 3.177-.01zm-3.169 2.195a1.39 1.39 0 1 1-2.78.009 1.39 1.39 0 0 1 2.78-.01zm-1.975 2.984a1.191 1.191 0 1 1-2.382.008 1.191 1.191 0 0 1 2.382-.008zm9.734-3.21s-.757.003 0 0zm0 0c2.273-.008 3.412 1.125 3.418 3.019.005 1.515-.367 3.032-1.877 4.552-1.888 1.9-4.912 3.804-4.903 6.456.005 1.515.206 4.355 2.296 6.431 2.66 2.642 4.114 5.07 4.123 7.72.009 2.653-1.717 4.771-4.748 4.782-3.03.01-4.772-2.133-4.783-5.542-.012-3.409.106-6.563-1.421-9.967-1.528-3.403-2.29-4.916-2.673-6.05-.382-1.135-.385-1.893-.388-2.65-.007-2.273 1.692-3.985 2.636-4.935 2.642-2.66 5.29-3.805 8.32-3.816z" />
        </defs>
        <g transform="translate(-98 -12)">
            <use fill="#ebf4ff" xlink:href="#5pt8a" />
        </g>
    </symbol>

    <symbol id="cp_logo" viewBox="0 0 28 33">
        <defs>
            <path id="ujina" d="M1330.956 1147.186c.192.139.363.215.529.244l.671 2.889 1.844-2.615-.38-.229-.073-.04c.356-.851.624-1.745.36-2.108-.316-.442-1.61-1.77-1.703-1.871-.466-.497-1.094-.29-1.432.179-.152.218-.343.416-.45.621 0 .002-1.011 1.776.634 2.93zm-14.701 18.132c-.554-1.111.306-2.912.332-2.906.089.021.244.045.244.045l.149.412s.051.004.087.012c2.568.477 5.456.354 6.012-.045 1.367-.982 2.729-3.518 3.15-4.766 0 0 2.613-1.52 4.674-1.289 1.504.17 2.112 1.475 2.112 3.398.095 0 .649.055.649.055s-.05.213-.057.311c-.006.096-.24.342-.221.432.172.748.52 1.57 1.31 1.932 2.706-.646 5.307-3.178 5.307-3.178l-1.022-.877c-.796.648-2.03 1.2-2.844 1.287 0 0 .79-5.973-.057-6.766-1.054-.99-2.982-1.445-3.887-1.311l.966 2.709-11.325 2.744s-.642-1.652-.834-2.217c.024 1.365-.914 3.547-1.291 3.984-.945 1.098-2.636 1.102-3.76.855l-1.003-.246s-.859 1.178-1.163 1.855c-1.374 3.064 1.302 4.25 1.302 4.25h22.429c-.472-.17-.996-.314-1.558-.439-4.497-1.502-14.625-1.432-19.701-.241zm2.755-11.351c.053.004 2.337-.119 2.944-.666.006-.002 1.014-1.742.092-2.408-.286-.236-.71-.15-2.088-.092-1.378.059-1.856-.158-1.856-.158l1.097-.821-.922-3.675 9.62-2.206.023-.013c-1.17-1.056-2.932-1.868-5.808-1.565l-.588-.555c.336-.18.51-.201.808-.489-.922-1.854-1.343-3.868-1.363-4.968.671-.187 3.331-.43 3.884-3.349 0 0-1.897 1.296-3.37.555-2.491-1.253-4.228 1.04-4.228 1.04s-1.677.08-1.637 1.08c.119 2.995 1.098 5.186 2.985 7.734-2.288 1.005-3.426 1.987-4.493 3.537-1.415 2.061-2.112 4.804-2.112 4.804s2.003 2.381 6.65 2.873c.096-.365.278-.457.362-.658z" />
        </defs>
        <g transform="translate(-1312 -1133)">
            <use fill="#ebf4ff" xlink:href="#ujina" />
        </g>
    </symbol>

    <symbol id="arrow-left" viewBox="0 0 21 22">
        <defs>
            <path id="s731a" d="M973.094 790.563c0 5.85-4.736 10.593-10.579 10.593-5.842 0-10.578-4.743-10.578-10.593 0-5.851 4.736-10.594 10.578-10.594 5.843 0 10.579 4.743 10.579 10.594zm-8.322 4.3l-3.492-4.34 3.617-4.4-1.962-.26-3.876 4.633 3.776 4.664z" />
        </defs>
        <g transform="translate(-952 -780)">
            <use fill="#fff" xlink:href="#s731a" />
        </g>
    </symbol>

    <symbol id="arrow-right" viewBox="0 0 21 22">
        <defs>
            <path id="2qqfa" d="M999.516 779.969c5.842 0 10.578 4.743 10.578 10.594 0 5.85-4.736 10.593-10.578 10.593s-10.578-4.743-10.578-10.593c0-5.851 4.736-10.594 10.578-10.594zm-.32 15.19l3.776-4.663-3.876-4.634-1.962.261 3.617 4.4-3.492 4.34z" />
        </defs>
        <g transform="translate(-989 -780)">
            <use fill="#fff" xlink:href="#2qqfa" />
        </g>
    </symbol>

    <symbol id="play" viewBox="0 0 42 42">
        <defs>
            <path id="8pdfa" d="M241.016 258.969c11.606 0 21.015 9.409 21.015 21.015 0 11.607-9.409 21.016-21.015 21.016-11.607 0-21.016-9.409-21.016-21.016 0-11.606 9.409-21.015 21.016-21.015zm8.009 21.088l-11.993-7.98-.012 15.892z" />
        </defs>
        <g transform="translate(-220 -259)">
            <use fill="#fff" xlink:href="#8pdfa" />
        </g>
    </symbol>

    <symbol id="scale" viewBox="0 0 42 42">
        <defs>
            <path id="cbq8a" d="M241.016 258.969c11.606 0 21.015 9.409 21.015 21.015 0 11.607-9.409 21.016-21.015 21.016-11.607 0-21.016-9.409-21.016-21.016 0-11.606 9.409-21.015 21.016-21.015zm-8.053 20.06a7.03 7.03 0 0 0 11.135 5.708l4.29 4.233h1.587v-1.618l-4.263-4.234a7.03 7.03 0 1 0-12.75-4.088zm7.033-5.053a5.026 5.026 0 1 1 0 10.052 5.026 5.026 0 0 1 0-10.052z" />
        </defs>
        <g transform="translate(-220 -259)">
            <use fill="#fff" xlink:href="#cbq8a" />
        </g>
    </symbol>

    <symbol id="close" viewBox="0 0 28 28">
        <defs>
            <path id="1ek9a" d="M1060 211c7.732 0 14 6.268 14 14s-6.268 14-14 14-14-6.268-14-14 6.268-14 14-14zm6.124 9.499l-.278-1.298-1.298-.278-4.49 4.396-4.49-4.396-1.39.278-.185 1.298 4.397 4.49-4.49 4.489.278 1.298 1.39.278 4.398-4.49 4.582 4.49 1.298-.278.278-1.298-4.49-4.49z" />
        </defs>
        <g transform="translate(-1046 -211)">
            <use fill="#fff" xlink:href="#1ek9a" />
        </g>
    </symbol>
</svg>